<svg xmlns="http://www.w3.org/2000/svg" xmlns:xlink="http://www.w3.org/1999/xlink" viewBox="0 0 900 210.92"><defs><style>.cls-1{fill:url(#linear-gradient);}.cls-2{fill:url(#linear-gradient-2);}.cls-3{fill:url(#linear-gradient-3);}.cls-4{fill:url(#linear-gradient-4);}.cls-5{fill:url(#linear-gradient-5);}</style><linearGradient id="linear-gradient" x1="139.05" y1="193.96" x2="-0.57" y2="54.34" gradientUnits="userSpaceOnUse"><stop offset="0" stop-color="#0350e6"/><stop offset="1" stop-color="#58c9fc"/></linearGradient><linearGradient id="linear-gradient-2" x1="97.63" y1="202.63" x2="4.53" y2="40.83" gradientUnits="userSpaceOnUse"><stop offset="0" stop-color="#0350e6"/><stop offset="0.05" stop-color="#0f60e9"/><stop offset="0.15" stop-color="#2580ef"/><stop offset="0.27" stop-color="#389bf4"/><stop offset="0.4" stop-color="#46aff7"/><stop offset="0.54" stop-color="#50befa"/><stop offset="0.72" stop-color="#56c6fc"/><stop offset="1" stop-color="#58c9fc"/></linearGradient><linearGradient id="linear-gradient-3" x1="123.28" y1="133.93" x2="241.86" y2="15.35" xlink:href="#linear-gradient"/><linearGradient id="linear-gradient-4" x1="232.82" y1="-13.21" x2="124.54" y2="144.29" gradientUnits="userSpaceOnUse"><stop offset="0" stop-color="#58c9fc"/><stop offset="0.28" stop-color="#56c6fc"/><stop offset="0.46" stop-color="#50befa"/><stop offset="0.6" stop-color="#46aff7"/><stop offset="0.73" stop-color="#389bf4"/><stop offset="0.85" stop-color="#2580ef"/><stop offset="0.95" stop-color="#0f60e9"/><stop offset="1" stop-color="#0350e6"/></linearGradient><linearGradient id="linear-gradient-5" x1="161.59" y1="145.04" x2="257.26" y2="-33.91" gradientUnits="userSpaceOnUse"><stop offset="0" stop-color="#0350e6" stop-opacity="0.5"/><stop offset="0.03" stop-color="#0350e6"/><stop offset="1" stop-color="#0350e6"/></linearGradient></defs><g id="Layer_2" data-name="Layer 2"><g id="Layer_1-2" data-name="Layer 1"><path d="M298,183.53,257.44,71.06h24l21.16,63.32q1.62,4.85,3.86,13t4.76,18.39q2.5-10.41,4.75-18.48t3.68-12.74l21.16-63.5h23.32L323.63,183.53Z"/><path d="M447.77,139.05q0,25.11-9.6,35.61t-32.73,10.49q-23.51,0-33-10.31t-9.51-35.79q0-24.93,9.69-35.43t32.83-10.5q23.31,0,32.82,10.32t9.51,35.61m-64-.18q0,16.5,4.12,21.7t17.59,5.21q13.08,0,17.31-5.3T427,138.87q0-16.68-4-21.89t-17.49-5.2q-13.29,0-17.49,5.38t-4.22,21.71"/><path d="M492.8,185.15q-14.9,0-22.25-7.44t-7.36-22.34V94.92H484v57.76q0,6.82,3.58,9.87t11.66,3a50.27,50.27,0,0,0,10.23-1.08,57.3,57.3,0,0,0,9.68-2.87V94.92H540v88.61H520.78l-.72-6.09h-.54a81.41,81.41,0,0,1-14.08,5.74,45.18,45.18,0,0,1-12.64,2"/><path d="M623.57,161.11v17.4q-4.67,2.7-13.91,4.67a91.53,91.53,0,0,1-19.1,2q-19,0-26.73-10.23t-7.71-35.87q0-25.29,10-35.61t34.35-10.32q5.93,0,10.68.27t10.14,1v18.48q-7-.54-12.2-.81t-8.62-.27q-14.7,0-19.1,5.2t-4.39,22.07q0,16.32,3.49,21.52t14.63,5.21a88.79,88.79,0,0,0,15.15-1.35,82.21,82.21,0,0,0,13.37-3.32"/><path d="M658.37,183.53H637.56V64.24h20.81v37.32a72.88,72.88,0,0,1,15.07-6.28A52.61,52.61,0,0,1,688,93.12q14.88,0,22.33,7.27t7.45,21.79v61.35H696.94V124.87q0-6.81-3.68-10t-11.75-3.14A58.28,58.28,0,0,0,669.85,113a67.91,67.91,0,0,0-11.48,3.41Z"/><path d="M806.72,161.83v16.86q-4.49,2.7-14.08,4.58a104.16,104.16,0,0,1-20,1.88q-21.18,0-30.41-10.76T733,138.87q0-23.87,9.69-34.8t30.67-10.95q20.28,0,28.71,8.43t8.43,28.89q0,3.76-.18,6.9t-.72,8.7H754q.18,11.13,4.93,15.61t17,4.48a115.14,115.14,0,0,0,16.68-1.25,89.16,89.16,0,0,0,14.17-3m-33.37-50.59q-10.94,0-15.15,4.31T754,131.15h37.49v-3.76q-.18-9.15-4.12-12.65t-14-3.5"/><path d="M896.23,161.83v16.86q-4.49,2.7-14.08,4.58a104.16,104.16,0,0,1-20,1.88q-21.17,0-30.41-10.76t-9.23-35.52q0-23.87,9.68-34.8t30.68-10.95q20.26,0,28.7,8.43T900,130.44q0,3.76-.18,6.9t-.72,8.7H843.49q.18,11.13,4.94,15.61t17,4.48a115.14,115.14,0,0,0,16.68-1.25,89.16,89.16,0,0,0,14.17-3m-33.36-50.59q-10.95,0-15.16,4.31t-4.22,15.6H881v-3.76q-.18-9.15-4.12-12.65t-14-3.5"/><path class="cls-1" d="M0,52.39,82,196a29.55,29.55,0,0,0,50,2.19l29.48-42.51-12.11,3.54a24.36,24.36,0,0,1-27.39-10.33L80,82.77A70.16,70.16,0,0,0,11.3,50.85Z"/><path class="cls-2" d="M94.38,196,12.4,52.39l.43-.06c-.18-.21-.35-.41-.52-.63a5.06,5.06,0,0,1-.51-.91c-.16,0-.33,0-.5.06L0,52.39,82,196a29.5,29.5,0,0,0,31.9,14.26A29.2,29.2,0,0,1,94.38,196Z"/><path class="cls-3" d="M113.06,122.06l41.7-68.7A110.54,110.54,0,0,1,246.8.21L256.25,0l-.71.58a113.45,113.45,0,0,0-28,33.69L171,138a30.22,30.22,0,0,1-20.78,15.19h0a23.82,23.82,0,0,1-24.86-11Z"/><path class="cls-4" d="M256.25,0,256,.18l-1.29,0a110.54,110.54,0,0,0-92,53.15L121,122.06l12.31,20.18a23.75,23.75,0,0,0,16.36,11.07,23.22,23.22,0,0,1-4,.34,23.82,23.82,0,0,1-20.33-11.41l-12.31-20.18,41.7-68.7a110.55,110.55,0,0,1,92-53.15Z"/><path class="cls-5" d="M256.25,0l-.71.57a113.61,113.61,0,0,0-28,33.7L171,138a30.15,30.15,0,0,1-20.78,15.19,24.12,24.12,0,0,1-4.53.43,22.85,22.85,0,0,1-5.49-.65A30.15,30.15,0,0,0,160,138L216.53,34.27C221.79,24.46,232.07,9.41,250,2.11A57.61,57.61,0,0,1,256.25,0Z"/></g></g></svg>